<svg xmlns="http://www.w3.org/2000/svg" xmlns:xlink="http://www.w3.org/1999/xlink" width="1024" zoomAndPan="magnify" viewBox="0 0 768 767.999994" height="1024" preserveAspectRatio="xMidYMid meet" version="1.0"><defs><clipPath id="2663fa7afe"><path d="M 62.421875 116 L 702 116 L 702 655.828125 L 62.421875 655.828125 Z M 62.421875 116 " clip-rule="nonzero"/></clipPath></defs><rect x="-76.8" width="921.6" fill="#ffffff" y="-76.799999" height="921.599993" fill-opacity="1"/><rect x="-76.8" width="921.6" fill="#ffffff" y="-76.799999" height="921.599993" fill-opacity="1"/><rect x="-76.8" width="921.6" fill="#63b7b7" y="-76.799999" height="921.599993" fill-opacity="1"/><g clip-path="url(#2663fa7afe)"><path fill="#fff2d0" d="M 701.230469 251.921875 C 700.359375 236.792969 705.914062 219.878906 695.855469 206.71875 C 678.238281 201.867188 660.667969 196.960938 642.992188 192.628906 C 642.0625 170.75 643.796875 148.804688 642.1875 126.984375 C 639.640625 112.089844 621.503906 117.28125 610.980469 117.167969 C 519.808594 121.726562 435.796875 173.285156 382.175781 245.738281 C 324.503906 167.222656 229.980469 113.121094 131 117.160156 C 129.035156 118.832031 125.050781 122.179688 123.023438 123.855469 C 120.015625 146.546875 122.855469 169.703125 121.632812 192.5625 C 101.59375 200.648438 71.960938 199.378906 62.421875 222.480469 C 66.179688 231.601562 67.050781 241.472656 66.640625 251.289062 C 65.773438 367.105469 67.445312 482.871094 65.828125 598.640625 C 64.324219 607.355469 65.941406 622.777344 78.480469 620.0625 C 118.984375 605.34375 162.605469 600.027344 205.589844 602.515625 C 264.007812 607.074219 324.675781 620.761719 372.683594 655.746094 C 377.367188 655.746094 386.671875 655.746094 391.289062 655.804688 C 417.867188 635.417969 450.101562 624.335938 481.941406 615.15625 C 550.179688 596.046875 623.851562 597.835938 690.925781 620.753906 C 705.25 618.332031 701.378906 602.628906 701.503906 592.226562 C 700.886719 478.832031 701.410156 365.375 701.230469 251.921875 Z M 91.023438 588.703125 C 91.375 469.125 90.96875 349.488281 91.195312 229.921875 C 101.421875 226.28125 111.707031 222.648438 121.992188 219.066406 C 121.765625 314.5625 121.824219 410.066406 121.9375 505.5625 C 120.613281 522.941406 142.335938 519.878906 153.664062 520.976562 C 221.265625 523.800781 282.796875 558.160156 331.914062 602.789062 C 256.097656 572.191406 169.777344 565.261719 91.023438 588.703125 Z M 421.054688 608.917969 C 458.550781 572.25 501.773438 539.347656 553.140625 525.191406 C 579.605469 516.238281 607.621094 515.378906 635.128906 512.777344 C 644.023438 511.679688 642.175781 500.597656 642.8125 494.359375 C 642.753906 403.015625 642.699219 311.679688 642.753906 220.332031 C 653.789062 223.679688 664.828125 227.027344 675.917969 230.261719 C 677.480469 349.839844 675.976562 469.472656 676.664062 589.042969 C 592.605469 565.78125 500.796875 574.09375 421.054688 608.917969 Z M 421.054688 608.917969 " fill-opacity="1" fill-rule="nonzero"/></g></svg>